<svg xmlns="http://www.w3.org/2000/svg" viewBox="0 0 64 64"><defs><style>.cls-1{fill:#bdccd4;}.cls-2{fill:#e6e6e6;}.cls-3{fill:#4d4d4d;}.cls-4{fill:#ffb398;}.cls-5{fill:#fcbda9;}.cls-6{fill:#fe946f;}.cls-7{fill:#ff0c38;}.cls-8{fill:#333;}.cls-9{fill:#fff;}</style></defs><g id="Filled-Outline-Icons"><path class="cls-1" d="M13,12V24a3,3,0,0,1-2,2.82A3,3,0,0,1,7,24V12a3,3,0,0,1,6,0Z" id="id_101"></path><path class="cls-1" d="M19,6V30a3,3,0,0,1-2,2.82A3,3,0,0,1,13,30V6a3,3,0,0,1,6,0Z" id="id_102"></path><path class="cls-2" d="M13,12V24a3,3,0,0,1-2,2.82A3,3,0,0,1,9,24V12a3,3,0,0,1,2-2.82A3,3,0,0,1,13,12Z" id="id_103"></path><path class="cls-2" d="M19,6V30a3,3,0,0,1-2,2.82A3,3,0,0,1,15,30V6a3,3,0,0,1,2-2.82A3,3,0,0,1,19,6Z" id="id_104"></path><path class="cls-1" d="M57,12V24a3,3,0,0,1-2,2.82A3,3,0,0,1,51,24V12a3,3,0,0,1,6,0Z" id="id_105"></path><path class="cls-1" d="M51,6V30a3,3,0,0,1-2,2.82A3,3,0,0,1,45,30V6a3,3,0,0,1,6,0Z" id="id_106"></path><path class="cls-2" d="M57,12V24a3,3,0,0,1-2,2.82A3,3,0,0,1,53,24V12a3,3,0,0,1,2-2.82A3,3,0,0,1,57,12Z" id="id_107"></path><path class="cls-2" d="M51,6V30a3,3,0,0,1-2,2.82A3,3,0,0,1,47,30V6a3,3,0,0,1,2-2.82A3,3,0,0,1,51,6Z" id="id_108"></path><rect class="cls-3" x="3" y="15" width="4" height="6" id="id_109"></rect><rect class="cls-3" x="57" y="15" width="4" height="6" id="id_110"></rect><path class="cls-4" d="M35,13v5c-1,.05-2.73-.27-3.41.59A2,2,0,0,0,31,20V13a2,2,0,0,1,3.41-1.41A2,2,0,0,1,35,13Z" id="id_111"></path><path class="cls-4" d="M39,13v5H35V13a2,2,0,0,1,3.41-1.41A2,2,0,0,1,39,13Z" id="id_112"></path><path class="cls-4" d="M31,13v7a2,2,0,0,1-4,0V13a2,2,0,0,1,3.41-1.41A2,2,0,0,1,31,13Z" id="id_113"></path><path class="cls-4" d="M27,13v7a2,2,0,0,1-4,0V13a2,2,0,0,1,3.41-1.41A2,2,0,0,1,27,13Z" id="id_114"></path><rect class="cls-3" x="19" y="15" width="4" height="6" id="id_115"></rect><polygon class="cls-3" points="45 15 45 21 41 21 41 18 39 18 39 15 45 15" id="id_116"></polygon><path class="cls-5" d="M41,18v6a4,4,0,0,1-4,4H35V26c0-2.21-.21-4,2-4H33a2,2,0,0,1-1.41-3.41A2,2,0,0,1,33,18Z" id="id_117"></path><path class="cls-6" d="M37,22c-2.21,0-2,1.79-2,4v2H27a4,4,0,0,1-4-4V20a2,2,0,0,0,4,0,2,2,0,0,0,4,0,2,2,0,0,0,2,2Z" id="id_118"></path><path class="cls-4" d="M61,49V61H38A12,12,0,0,1,26,49V38H38v7a4,4,0,0,0,4,4Z" id="id_119"></path><path class="cls-6" d="M33,47V38H26V49A12,12,0,0,0,38,61H61V55H41A8,8,0,0,1,33,47Z" id="id_120"></path><rect class="cls-7" x="24" y="28" width="16" height="10" rx="2" id="id_121" style="fill: rgb(0, 224, 194);"></rect><rect class="cls-8" x="3" y="18" width="4" height="3" id="id_122"></rect><rect class="cls-8" x="19" y="18" width="4" height="3" id="id_123"></rect><rect class="cls-8" x="41" y="18" width="4" height="3" id="id_124"></rect><rect class="cls-8" x="57" y="18" width="4" height="3" id="id_125"></rect><rect class="cls-9" x="27" y="30" width="2" height="2" id="id_126"></rect><path class="cls-9" d="M32,37H28a1,1,0,0,1-1-1V33h2v2h3Z" id="id_127"></path><rect class="cls-9" x="27" y="30" width="2" height="2" id="id_128"></rect><path class="cls-9" d="M32,37H28a1,1,0,0,1-1-1V33h2v2h3Z" id="id_129"></path><path d="M48,34a4,4,0,0,0,4-4V27.44A4,4,0,0,0,58,24V22h3a1,1,0,0,0,1-1V15a1,1,0,0,0-1-1H58V12a4,4,0,0,0-6-3.44V6a4,4,0,0,0-8,0v8H40a3.78,3.78,0,0,0-.87-3.11A3,3,0,0,0,35,10.78a3,3,0,0,0-4,0,3,3,0,0,0-4,0A3,3,0,0,0,22,13v1H20V6a4,4,0,0,0-8,0V8.56A4,4,0,0,0,6,12v2H3a1,1,0,0,0-1,1v6a1,1,0,0,0,1,1H6v2a4,4,0,0,0,6,3.44V30a4,4,0,0,0,8,0V22h2v2a5,5,0,0,0,1.88,3.88A3,3,0,0,0,23,30v6a3,3,0,0,0,2,2.82V49A13,13,0,0,0,38,62H61a1,1,0,0,0,1-1V49a1,1,0,0,0-1-1H42a3,3,0,0,1-3-3V38.82A3,3,0,0,0,41,36V30a3,3,0,0,0-.88-2.12A5,5,0,0,0,42,24V22h2v8A4,4,0,0,0,48,34ZM60,16v4H58V16Zm-6-6a2,2,0,0,1,2,2V24a2,2,0,0,1-4,0V12A2,2,0,0,1,54,10ZM46,6a2,2,0,0,1,4,0V30a2,2,0,0,1-4,0V6ZM24,22.83a3.06,3.06,0,0,0,2.34-.16,4,4,0,0,0,.66-.44,3,3,0,0,0,4,0,4.2,4.2,0,0,0,3.18.77A20.2,20.2,0,0,0,34,27H27a3,3,0,0,1-3-3Zm12,2.63c0-.93,0-2,.28-2.28A1.09,1.09,0,0,1,37,23a1,1,0,0,0,0-2H33a1,1,0,0,1-.69-1.71c.33-.49,2-.23,2.69-.29h5v5a3,3,0,0,1-3,3H36ZM37,12a1,1,0,0,1,.71.31c.49.34.23,2,.29,2.69v2H36V13A1,1,0,0,1,37,12Zm-4,0a1,1,0,0,1,.71.31A.93.93,0,0,1,34,13v4a6.36,6.36,0,0,0-2,.17V13A1,1,0,0,1,33,12Zm-4,0a1,1,0,0,1,.71.31A.93.93,0,0,1,30,13v7a1,1,0,0,1-2,0V13A1,1,0,0,1,29,12Zm-5,1a1,1,0,0,1,1.71-.69A.93.93,0,0,1,26,13v7a1,1,0,0,1-2,0ZM4,20V16H6v4Zm6,6a2,2,0,0,1-2-2V12a2,2,0,0,1,4,0V24A2,2,0,0,1,10,26Zm8,4a2,2,0,0,1-4,0V6a2,2,0,0,1,4,0V30Zm2-10V16h2v4ZM42,50H60V60H38A11,11,0,0,1,27,49V39H37v6A5,5,0,0,0,42,50ZM38,29a1,1,0,0,1,1,1v6a1,1,0,0,1-1,1H26a1,1,0,0,1-1-1V30a1,1,0,0,1,1-1H38Zm4-9V18a1,1,0,0,0-1-1H40V16h4v4Z" id="id_130"></path></g></svg>